<svg id="OBJECTS" xmlns="http://www.w3.org/2000/svg" width="56.01" height="72.358" viewBox="0 0 56.01 72.358">
  <g id="Group_13" data-name="Group 13" transform="translate(0 0)">
    <path id="Path_30" data-name="Path 30" d="M142.661,183.894a28,28,0,0,0-19.306,48.282c.274-.243.555-.478.838-.711-.077.063-.156.123-.232.187V205.988a4.106,4.106,0,0,1,1.692-3.094l15.416-9.876a3.405,3.405,0,0,1,3.38.008l15.225,9.859a4.132,4.132,0,0,1,1.687,3.1v24.256l-.1-.067c.524.376,1.04.762,1.539,1.169a28,28,0,0,0-20.143-47.451Z" transform="translate(-114.656 -177.061)" fill="#427069"/>
    <path id="Path_31" data-name="Path 31" d="M155.222,235.367a30.3,30.3,0,0,1,17.8,5.749V216.86a4.132,4.132,0,0,0-1.687-3.1L156.1,203.9a3.405,3.405,0,0,0-3.38-.008l-15.416,9.876a4.106,4.106,0,0,0-1.692,3.094v25.665A30.321,30.321,0,0,1,155.222,235.367Z" transform="translate(-126.312 -187.933)" fill="#fcb041"/>
    <ellipse id="Ellipse_2" data-name="Ellipse 2" cx="3.283" cy="3.283" rx="3.283" ry="3.283" transform="translate(23.719 19.454) rotate(-22.393)" fill="#fcb041" opacity="0.5" style="mix-blend-mode: multiply;isolation: isolate"/>
    <path id="Path_32" data-name="Path 32" d="M177.116,211.428a2.479,2.479,0,1,1-2.479-2.479A2.479,2.479,0,0,1,177.116,211.428Z" transform="translate(-146.632 -190.993)" fill="#414143"/>
    <g id="Group_11" data-name="Group 11" transform="translate(20.799)">
      <path id="Path_33" data-name="Path 33" d="M168.716,189.572a.4.4,0,0,1-.33-.171c-.281-.4-6.876-9.853-6.876-13.694a7.214,7.214,0,0,1,7.206-7.206.4.4,0,1,1,0,.8,6.409,6.409,0,0,0-6.4,6.4c0,3.589,6.664,13.136,6.731,13.232a.4.4,0,0,1-.329.633Z" transform="translate(-161.51 -168.501)" fill="#fcb041"/>
    </g>
    <path id="Path_34" data-name="Path 34" d="M146.1,303.88c7.1,6.719,14.045,12.261,14.045,12.261s6.942-5.542,14.046-12.261Z" transform="translate(-132.143 -243.783)" fill="#fcb041"/>
    <path id="Path_35" data-name="Path 35" d="M173.017,253.994V229.738a4.132,4.132,0,0,0-1.687-3.1l-.049-.032c-4.2,11.393-15.72,25.1-35.664,16.011V255.4a30.423,30.423,0,0,1,37.4-1.409Z" transform="translate(-126.312 -200.811)" fill="#fcb041" opacity="0.5" style="mix-blend-mode: multiply;isolation: isolate"/>
    <path id="Path_36" data-name="Path 36" d="M165.173,311.487c3.291,2.826,5.58,4.653,5.58,4.653s6.942-5.542,14.046-12.261H177.6A14.335,14.335,0,0,1,165.173,311.487Z" transform="translate(-142.748 -243.783)" fill="#fa9429" style="mix-blend-mode: multiply;isolation: isolate"/>
    <g id="Group_12" data-name="Group 12" transform="translate(27.603)">
      <path id="Path_37" data-name="Path 37" d="M177.238,189.572a.4.4,0,0,1-.329-.633c.067-.1,6.731-9.644,6.731-13.232a6.409,6.409,0,0,0-6.4-6.4.4.4,0,1,1,0-.8,7.214,7.214,0,0,1,7.206,7.206c0,3.84-6.6,13.293-6.876,13.694A.4.4,0,0,1,177.238,189.572Z" transform="translate(-176.836 -168.501)" fill="#fcb041"/>
    </g>
    <path id="Path_38" data-name="Path 38" d="M170.33,202.249c-.416-.742-.827-1.49-1.224-2.236l-1.078,1.7c.269.5.544.992.82,1.485Z" transform="translate(-144.335 -186.024)" fill="#414143"/>
  </g>
</svg>
